<?xml version="1.0" encoding="UTF-8" standalone="no"?>
<!-- Created with Inkscape (http://www.inkscape.org/) -->

<svg
   xmlns:dc="http://purl.org/dc/elements/1.1/"
   xmlns:cc="http://creativecommons.org/ns#"
   xmlns:rdf="http://www.w3.org/1999/02/22-rdf-syntax-ns#"
   xmlns:svg="http://www.w3.org/2000/svg"
   xmlns="http://www.w3.org/2000/svg"
   xmlns:sodipodi="http://sodipodi.sourceforge.net/DTD/sodipodi-0.dtd"
   xmlns:inkscape="http://www.inkscape.org/namespaces/inkscape"
   width="85.599998mm"
   height="53.98mm"
   viewBox="0 0 85.599998 53.98"
   version="1.1"
   id="svg8"
   inkscape:version="0.92.1 r15371"
   sodipodi:docname="concentrador_simple.svg">
  <defs
     id="defs2" />
  <sodipodi:namedview
     id="base"
     pagecolor="#ffffff"
     bordercolor="#666666"
     borderopacity="1.0"
     inkscape:pageopacity="0.0"
     inkscape:pageshadow="2"
     inkscape:zoom="1.3788973"
     inkscape:cx="208.14993"
     inkscape:cy="141.66894"
     inkscape:document-units="mm"
     inkscape:current-layer="layer1"
     showgrid="false"
     units="mm"
     inkscape:window-width="1366"
     inkscape:window-height="705"
     inkscape:window-x="-8"
     inkscape:window-y="-8"
     inkscape:window-maximized="1" />
  <metadata
     id="metadata5">
    <rdf:RDF>
      <cc:Work
         rdf:about="">
        <dc:format>image/svg+xml</dc:format>
        <dc:type
           rdf:resource="http://purl.org/dc/dcmitype/StillImage" />
        <dc:title></dc:title>
      </cc:Work>
    </rdf:RDF>
  </metadata>
  <g
     inkscape:label="Layer 1"
     inkscape:groupmode="layer"
     id="layer1"
     transform="translate(0,-243.02001)">
    <path
       style="fill:none;stroke:#000000;stroke-width:0.26458332px;stroke-linecap:butt;stroke-linejoin:miter;stroke-opacity:1"
       d="m 28.348214,259.58037 h 29.293155 v 19.84375 H 28.348214 Z"
       id="path16"
       inkscape:connector-curvature="0" />
    <path
       style="fill:none;stroke:#000000;stroke-width:0.26458332px;stroke-linecap:butt;stroke-linejoin:miter;stroke-opacity:1"
       d="m 10.394345,275.26638 h 17.386902 v 0.18899"
       id="path18"
       inkscape:connector-curvature="0" />
    <path
       style="fill:none;stroke:#000000;stroke-width:0.26458332px;stroke-linecap:butt;stroke-linejoin:miter;stroke-opacity:1"
       d="m 24.364982,274.37538 v 2.04303 h -0.07567 l 3.491935,-1.15203 z"
       id="path35"
       inkscape:connector-curvature="0" />
    <path
       style="fill:none;stroke:#000000;stroke-width:0.28643832;stroke-linecap:square;stroke-linejoin:round;stroke-miterlimit:4;stroke-dasharray:0.28643832, 3.43725984;stroke-dashoffset:0;stroke-opacity:1;paint-order:markers fill stroke"
       d="m 92.676519,123.80146 v -1.28694 l 4.075328,0.0219 4.075333,0.0219 -3.709462,1.26504 c -2.040203,0.69577 -3.8741,1.26504 -4.075329,1.26504 -0.242965,0 -0.36587,-0.43232 -0.36587,-1.28695 z"
       id="path37"
       inkscape:connector-curvature="0"
       transform="matrix(0.26458333,0,0,0.26458333,0,243.02001)" />
    <path
       style="fill:none;stroke:#000000;stroke-width:0.28643832;stroke-linecap:square;stroke-linejoin:round;stroke-miterlimit:4;stroke-dasharray:0.28643832, 3.43725984;stroke-dashoffset:0;stroke-opacity:1;paint-order:markers fill stroke"
       d="m 92.676519,120.36961 c 0,-0.55053 0.09652,-0.99329 0.214491,-0.98393 0.11797,0.009 1.823173,0.44969 3.78934,0.97849 l 3.57485,0.96145 -3.789341,0.0225 -3.78934,0.0225 z"
       id="path39"
       inkscape:connector-curvature="0"
       transform="matrix(0.26458333,0,0,0.26458333,0,243.02001)" />
    <path
       style="fill:#000000;stroke:#000000;stroke-width:0.06420169;stroke-linecap:square;stroke-linejoin:round;stroke-miterlimit:4;stroke-dasharray:0.06420169, 0.77042031000000000;stroke-dashoffset:0;stroke-opacity:1;paint-order:markers fill stroke"
       d="m 92.586136,124.88751 c 0,-0.43802 0.0114,-0.48076 0.128202,-0.48076 0.118146,0 0.128201,-0.0427 0.128201,-0.54486 0,-0.50212 -0.01006,-0.54485 -0.128201,-0.54485 -0.115992,0 -0.128202,-0.0427 -0.128202,-0.44871 v -0.4487 H 93.772 c 1.14313,0 1.185864,0.005 1.185864,0.1282 0,0.11111 0.04273,0.1282 0.320504,0.1282 0.27777,0 0.320503,-0.0171 0.320503,-0.1282 0,-0.12464 0.04273,-0.1282 1.538418,-0.1282 h 1.538418 v 0.16025 c 0,0.14957 0.02137,0.16025 0.320504,0.16025 0.299137,0 0.320504,-0.0107 0.320504,-0.16025 v -0.16025 l 1.137785,0.005 1.13779,0.005 -1.08971,0.37017 c -0.958793,0.32569 -1.096626,0.35782 -1.147243,0.26738 -0.03164,-0.0565 -0.06489,-0.11201 -0.07389,-0.12326 -0.009,-0.0113 -0.136901,0.0156 -0.284234,0.0598 -0.229767,0.0688 -0.263836,0.10139 -0.239475,0.22883 0.02659,0.1391 -0.02313,0.1648 -0.780001,0.40322 -0.444621,0.14005 -1.107008,0.35546 -1.47197,0.47868 -0.641374,0.21654 -0.664686,0.21975 -0.697029,0.0961 -0.03411,-0.13044 -0.07473,-0.12962 -0.445339,0.009 -0.07662,0.0286 -0.148737,0.1162 -0.160251,0.19454 -0.01822,0.12397 -0.178762,0.1951 -1.237571,0.54831 -0.669149,0.22323 -1.253268,0.40586 -1.29804,0.40586 -0.05857,0 -0.08141,-0.13485 -0.08141,-0.48075 z"
       id="path43"
       inkscape:connector-curvature="0"
       transform="matrix(0.26458333,0,0,0.26458333,0,243.02001)" />
    <path
       style="fill:#000000;stroke:none;stroke-width:0.06410075"
       d="m 92.586136,120.94531 c 0,-0.34187 0.01425,-0.3846 0.128202,-0.3846 0.111108,0 0.128201,-0.0427 0.128201,-0.32051 0,-0.27777 -0.01709,-0.3205 -0.128201,-0.3205 -0.112662,0 -0.128202,-0.0427 -0.128202,-0.35256 0,-0.24103 0.02534,-0.35152 0.08013,-0.34931 0.04407,0.002 0.657033,0.15638 1.362141,0.34354 1.171727,0.31103 1.280742,0.35187 1.267219,0.47484 -0.01162,0.10564 0.03657,0.14881 0.224353,0.20096 0.323262,0.0898 0.3994,0.0842 0.3994,-0.029 0,-0.0529 0.04618,-0.0962 0.102626,-0.0962 0.05644,0 0.736152,0.16377 1.510461,0.36393 1.359205,0.35136 1.406573,0.36896 1.371257,0.50967 -0.03142,0.12517 -0.0026,0.15519 0.204234,0.21262 0.32282,0.0896 0.401064,0.0848 0.401064,-0.0248 0,-0.16199 0.09684,-0.16307 0.647369,-0.007 l 0.53849,0.15248 -1.394186,0.006 c -1.199029,0.005 -1.394192,-0.008 -1.394192,-0.0906 0,-0.13598 -0.565645,-0.13598 -0.617827,0 -0.03137,0.0818 -0.266202,0.0962 -1.568456,0.0962 -0.978306,0 -1.53156,-0.0232 -1.53156,-0.0641 0,-0.0353 -0.144227,-0.0641 -0.320504,-0.0641 -0.176277,0 -0.320504,0.0288 -0.320504,0.0641 0,0.037 -0.202985,0.0641 -0.480755,0.0641 H 92.58614 Z"
       id="path45"
       inkscape:connector-curvature="0"
       transform="matrix(0.26458333,0,0,0.26458333,0,243.02001)" />
    <path
       style="fill:none;stroke:#000000;stroke-width:0.26458332px;stroke-linecap:butt;stroke-linejoin:miter;stroke-opacity:1"
       d="m 57.847291,275.20647 h 17.386902 v 0.18899"
       id="path18-6"
       inkscape:connector-curvature="0" />
    <path
       style="fill:none;stroke:#000000;stroke-width:0.26458332px;stroke-linecap:butt;stroke-linejoin:miter;stroke-opacity:1"
       d="m 71.817928,274.31547 v 2.04303 h -0.07567 l 3.491935,-1.15203 z"
       id="path35-4"
       inkscape:connector-curvature="0" />
    <path
       style="fill:none;stroke:#000000;stroke-width:0.07578681;stroke-linecap:square;stroke-linejoin:round;stroke-miterlimit:4;stroke-dasharray:0.07578681, 0.90944167;stroke-dashoffset:0;stroke-opacity:1;paint-order:markers fill stroke"
       d="m 71.973608,275.7159 v -0.3405 l 1.078264,0.006 1.078265,0.006 -0.981462,0.33471 c -0.539803,0.18408 -1.025022,0.3347 -1.078264,0.3347 -0.06428,0 -0.0968,-0.11438 -0.0968,-0.3405 z"
       id="path37-9"
       inkscape:connector-curvature="0" />
    <path
       style="fill:none;stroke:#000000;stroke-width:0.07578681;stroke-linecap:square;stroke-linejoin:round;stroke-miterlimit:4;stroke-dasharray:0.07578681, 0.90944167;stroke-dashoffset:0;stroke-opacity:1;paint-order:markers fill stroke"
       d="m 71.973608,274.80789 c 0,-0.14566 0.02554,-0.26281 0.05675,-0.26033 0.03121,0.002 0.482381,0.11898 1.002596,0.25889 l 0.945846,0.25439 -1.002597,0.006 -1.002596,0.006 z"
       id="path39-0"
       inkscape:connector-curvature="0" />
    <path
       style="fill:#000000;stroke:#000000;stroke-width:0.0169867;stroke-linecap:square;stroke-linejoin:round;stroke-miterlimit:4;stroke-dasharray:0.0169867, 0.20384037;stroke-dashoffset:0;stroke-opacity:1;paint-order:markers fill stroke"
       d="m 71.949694,276.00325 c 0,-0.11589 0.003,-0.1272 0.03392,-0.1272 0.03126,0 0.03392,-0.0113 0.03392,-0.14416 0,-0.13285 -0.0027,-0.14416 -0.03392,-0.14416 -0.03069,0 -0.03392,-0.0113 -0.03392,-0.11872 v -0.11872 h 0.31376 c 0.302453,0 0.31376,0.001 0.31376,0.0339 0,0.0294 0.01131,0.0339 0.0848,0.0339 0.07349,0 0.0848,-0.005 0.0848,-0.0339 0,-0.033 0.01131,-0.0339 0.40704,-0.0339 h 0.407039 v 0.0424 c 0,0.0396 0.0057,0.0424 0.0848,0.0424 0.07915,0 0.0848,-0.003 0.0848,-0.0424 v -0.0424 l 0.301039,0.001 0.301041,10e-4 -0.28832,0.0979 c -0.25368,0.0862 -0.290148,0.0947 -0.303541,0.0707 -0.0084,-0.0149 -0.01717,-0.0296 -0.01955,-0.0326 -0.0024,-0.003 -0.03622,0.004 -0.0752,0.0158 -0.06079,0.0182 -0.06981,0.0268 -0.06336,0.0605 0.007,0.0368 -0.0061,0.0436 -0.206375,0.10668 -0.117639,0.0371 -0.292896,0.0941 -0.389459,0.12665 -0.169697,0.0573 -0.175864,0.0581 -0.184422,0.0254 -0.009,-0.0345 -0.01977,-0.0343 -0.117829,0.002 -0.02027,0.008 -0.03935,0.0308 -0.0424,0.0515 -0.0048,0.0328 -0.0473,0.0516 -0.327441,0.14508 -0.177045,0.0591 -0.331593,0.10738 -0.343439,0.10738 -0.0155,0 -0.02154,-0.0357 -0.02154,-0.1272 z"
       id="path43-1"
       inkscape:connector-curvature="0" />
    <path
       style="fill:#000000;stroke:none;stroke-width:0.01695999"
       d="m 71.949694,274.96021 c 0,-0.0905 0.0038,-0.10176 0.03392,-0.10176 0.0294,0 0.03392,-0.0113 0.03392,-0.0848 0,-0.0735 -0.0045,-0.0848 -0.03392,-0.0848 -0.02981,0 -0.03392,-0.0113 -0.03392,-0.0933 0,-0.0638 0.0067,-0.093 0.0212,-0.0924 0.01166,5.3e-4 0.17384,0.0414 0.3604,0.0909 0.31002,0.0823 0.338863,0.0931 0.335285,0.12564 -0.0031,0.028 0.0097,0.0394 0.05936,0.0532 0.08553,0.0238 0.105675,0.0223 0.105675,-0.008 0,-0.014 0.01222,-0.0255 0.02715,-0.0255 0.01493,0 0.194774,0.0433 0.399643,0.0963 0.359623,0.093 0.372156,0.0976 0.362812,0.13485 -0.0083,0.0331 -6.88e-4,0.0411 0.05404,0.0563 0.08541,0.0237 0.106115,0.0224 0.106115,-0.007 0,-0.0429 0.02562,-0.0431 0.171283,-0.002 l 0.142476,0.0403 -0.368879,0.002 c -0.317243,0.001 -0.36888,-0.002 -0.36888,-0.024 0,-0.036 -0.14966,-0.036 -0.163466,0 -0.0083,0.0216 -0.07043,0.0255 -0.414988,0.0255 -0.258843,0 -0.405225,-0.006 -0.405225,-0.017 0,-0.009 -0.03816,-0.017 -0.0848,-0.017 -0.04664,0 -0.0848,0.008 -0.0848,0.017 0,0.01 -0.05371,0.017 -0.1272,0.017 h -0.1272 z"
       id="path45-3"
       inkscape:connector-curvature="0" />
    <path
       style="fill:none;stroke:#000000;stroke-width:0.28328812px;stroke-linecap:butt;stroke-linejoin:miter;stroke-opacity:1"
       d="M 78.011941,264.27079 H 57.80673 v 0.18644"
       id="path18-62"
       inkscape:connector-curvature="0" />
    <path
       style="fill:none;stroke:#000000;stroke-width:0.28328812px;stroke-linecap:butt;stroke-linejoin:miter;stroke-opacity:1"
       d="m 61.776751,263.39183 v 2.01542 h 0.08794 l -4.057956,-1.13646 z"
       id="path35-2"
       inkscape:connector-curvature="0" />
    <path
       style="fill:none;stroke:#000000;stroke-width:0.08114458;stroke-linecap:square;stroke-linejoin:round;stroke-miterlimit:4;stroke-dasharray:0.08114459, 0.97373497;stroke-dashoffset:0;stroke-opacity:1;paint-order:markers fill stroke"
       d="m 61.595836,264.77334 v -0.3359 l -1.253044,0.006 -1.253045,0.006 1.140551,0.33018 c 0.627301,0.18159 1.191171,0.33018 1.253044,0.33018 0.0747,0 0.11249,-0.11284 0.11249,-0.3359 z"
       id="path37-5"
       inkscape:connector-curvature="0" />
    <path
       style="fill:none;stroke:#000000;stroke-width:0.08114458;stroke-linecap:square;stroke-linejoin:round;stroke-miterlimit:4;stroke-dasharray:0.08114459, 0.97373497;stroke-dashoffset:0;stroke-opacity:1;paint-order:markers fill stroke"
       d="m 61.595836,263.8776 c 0,-0.14369 -0.02968,-0.25926 -0.06595,-0.25681 -0.03627,0.002 -0.560572,0.11737 -1.165111,0.25539 l -1.099161,0.25095 1.165111,0.006 1.165111,0.006 z"
       id="path39-2"
       inkscape:connector-curvature="0" />
    <path
       style="fill:#000000;stroke:#000000;stroke-width:0.01818758;stroke-linecap:square;stroke-linejoin:round;stroke-miterlimit:4;stroke-dasharray:0.01818758, 0.21825094;stroke-dashoffset:0;stroke-opacity:1;paint-order:markers fill stroke"
       d="m 61.623626,265.0568 c 0,-0.11432 -0.0035,-0.12548 -0.03942,-0.12548 -0.03633,0 -0.03942,-0.0111 -0.03942,-0.14221 0,-0.13105 0.0031,-0.14221 0.03942,-0.14221 0.03567,0 0.03942,-0.0111 0.03942,-0.11712 v -0.11711 h -0.364618 c -0.351479,0 -0.364619,9.8e-4 -0.364619,0.0334 0,0.029 -0.01314,0.0334 -0.09855,0.0334 -0.0854,0 -0.09855,-0.005 -0.09855,-0.0334 0,-0.0326 -0.01314,-0.0334 -0.473019,-0.0334 h -0.473017 v 0.0418 c 0,0.0391 -0.0066,0.0418 -0.09855,0.0418 -0.09198,0 -0.09855,-0.003 -0.09855,-0.0418 v -0.0418 l -0.349836,9.8e-4 -0.349838,9.9e-4 0.335055,0.0966 c 0.2948,0.085 0.337179,0.0934 0.352743,0.0697 0.0098,-0.0147 0.01995,-0.0292 0.02272,-0.0322 0.0028,-0.003 0.04209,0.004 0.08739,0.0156 0.07064,0.018 0.08113,0.0264 0.07363,0.0597 -0.0081,0.0363 0.0071,0.043 0.239827,0.10524 0.136708,0.0366 0.340373,0.0928 0.452588,0.12494 0.197204,0.0565 0.20437,0.0573 0.214316,0.0251 0.01046,-0.034 0.02297,-0.0338 0.136928,0.002 0.02356,0.008 0.04573,0.0304 0.04927,0.0508 0.0056,0.0324 0.05497,0.0509 0.380517,0.14312 0.205743,0.0583 0.385342,0.10593 0.399108,0.10593 0.01801,0 0.02503,-0.0352 0.02503,-0.12548 z"
       id="path43-2"
       inkscape:connector-curvature="0" />
    <path
       style="fill:#000000;stroke:none;stroke-width:0.01815898"
       d="m 61.623626,264.02786 c 0,-0.0893 -0.0044,-0.10039 -0.03942,-0.10039 -0.03417,0 -0.03942,-0.0111 -0.03942,-0.0836 0,-0.0725 0.0052,-0.0837 0.03942,-0.0837 0.03464,0 0.03942,-0.0111 0.03942,-0.092 0,-0.0629 -0.0078,-0.0917 -0.02464,-0.0911 -0.01355,5.2e-4 -0.202019,0.0408 -0.418819,0.0897 -0.360272,0.0812 -0.39379,0.0918 -0.389632,0.12394 0.0036,0.0276 -0.01127,0.0389 -0.06898,0.0525 -0.09939,0.0235 -0.122805,0.022 -0.122805,-0.008 0,-0.0138 -0.0142,-0.0252 -0.03155,-0.0252 -0.01735,0 -0.226346,0.0427 -0.464423,0.095 -0.417916,0.0917 -0.43248,0.0963 -0.421622,0.13303 0.0096,0.0326 8e-4,0.0405 -0.0628,0.0555 -0.09925,0.0234 -0.123316,0.0221 -0.123316,-0.007 0,-0.0423 -0.02977,-0.0425 -0.199047,-0.002 l -0.16557,0.0398 0.428672,0.002 c 0.368666,9.8e-4 0.428673,-0.002 0.428673,-0.0237 0,-0.0355 0.173919,-0.0355 0.189963,0 0.0096,0.0213 0.08185,0.0252 0.482255,0.0252 0.3008,0 0.470909,-0.006 0.470909,-0.0168 0,-0.009 0.04435,-0.0168 0.09855,-0.0168 0.0542,0 0.09855,0.008 0.09855,0.0168 0,0.01 0.06242,0.0168 0.147819,0.0168 h 0.147818 z"
       id="path45-2"
       inkscape:connector-curvature="0" />
    <path
       style="fill:none;stroke:#000000;stroke-width:0.28328812px;stroke-linecap:butt;stroke-linejoin:miter;stroke-opacity:1"
       d="M 28.402064,264.07711 H 8.1968531 v 0.18644"
       id="path18-62-6"
       inkscape:connector-curvature="0" />
    <path
       style="fill:none;stroke:#000000;stroke-width:0.28328812px;stroke-linecap:butt;stroke-linejoin:miter;stroke-opacity:1"
       d="m 12.166874,263.19815 v 2.01542 h 0.08794 l -4.0579559,-1.13646 z"
       id="path35-2-6"
       inkscape:connector-curvature="0" />
    <path
       style="fill:none;stroke:#000000;stroke-width:0.08114459;stroke-linecap:square;stroke-linejoin:round;stroke-miterlimit:4;stroke-dasharray:0.08114459, 0.97373498;stroke-dashoffset:0;stroke-opacity:1;paint-order:markers fill stroke"
       d="m 11.985959,264.57966 v -0.3359 l -1.253044,0.006 -1.2530449,0.006 1.1405509,0.33018 c 0.627301,0.18159 1.191171,0.33018 1.253044,0.33018 0.0747,0 0.11249,-0.11284 0.11249,-0.3359 z"
       id="path37-5-9"
       inkscape:connector-curvature="0" />
    <path
       style="fill:none;stroke:#000000;stroke-width:0.08114459;stroke-linecap:square;stroke-linejoin:round;stroke-miterlimit:4;stroke-dasharray:0.08114459, 0.97373498;stroke-dashoffset:0;stroke-opacity:1;paint-order:markers fill stroke"
       d="m 11.985959,263.68392 c 0,-0.14369 -0.02968,-0.25926 -0.06595,-0.25681 -0.03627,0.002 -0.560572,0.11737 -1.165111,0.25539 l -1.0991609,0.25095 1.1651109,0.006 1.165111,0.006 z"
       id="path39-2-5"
       inkscape:connector-curvature="0" />
    <path
       style="fill:#000000;stroke:#000000;stroke-width:0.01818758;stroke-linecap:square;stroke-linejoin:round;stroke-miterlimit:4;stroke-dasharray:0.01818758, 0.21825094;stroke-dashoffset:0;stroke-opacity:1;paint-order:markers fill stroke"
       d="m 12.013749,264.86312 c 0,-0.11432 -0.0035,-0.12548 -0.03942,-0.12548 -0.03633,0 -0.03942,-0.0111 -0.03942,-0.14221 0,-0.13105 0.0031,-0.14221 0.03942,-0.14221 0.03567,0 0.03942,-0.0111 0.03942,-0.11712 v -0.11711 h -0.364618 c -0.351479,0 -0.364619,9.8e-4 -0.364619,0.0334 0,0.029 -0.01314,0.0334 -0.09855,0.0334 -0.0854,0 -0.09855,-0.005 -0.09855,-0.0334 0,-0.0326 -0.01314,-0.0334 -0.473019,-0.0334 h -0.473017 v 0.0418 c 0,0.0391 -0.0066,0.0418 -0.09855,0.0418 -0.09198,0 -0.09855,-0.003 -0.09855,-0.0418 v -0.0418 l -0.349836,9.8e-4 -0.349838,9.9e-4 0.335055,0.0966 c 0.2948,0.085 0.337179,0.0934 0.352743,0.0697 0.0098,-0.0147 0.01995,-0.0292 0.02272,-0.0322 0.0028,-0.003 0.04209,0.004 0.08739,0.0156 0.07064,0.018 0.08113,0.0264 0.07363,0.0597 -0.0081,0.0363 0.0071,0.043 0.239827,0.10524 0.136708,0.0366 0.340373,0.0928 0.452588,0.12494 0.197204,0.0565 0.20437,0.0573 0.214316,0.0251 0.01046,-0.034 0.02297,-0.0338 0.136928,0.002 0.02356,0.008 0.04573,0.0304 0.04927,0.0508 0.0056,0.0324 0.05497,0.0509 0.380517,0.14312 0.205743,0.0583 0.385342,0.10593 0.399108,0.10593 0.01801,0 0.02503,-0.0352 0.02503,-0.12548 z"
       id="path43-2-4"
       inkscape:connector-curvature="0" />
    <path
       style="fill:#000000;stroke:none;stroke-width:0.01815898"
       d="m 12.013749,263.83418 c 0,-0.0893 -0.0044,-0.10039 -0.03942,-0.10039 -0.03417,0 -0.03942,-0.0111 -0.03942,-0.0836 0,-0.0725 0.0052,-0.0837 0.03942,-0.0837 0.03464,0 0.03942,-0.0111 0.03942,-0.092 0,-0.0629 -0.0078,-0.0917 -0.02464,-0.0911 -0.01355,5.3e-4 -0.202019,0.0408 -0.418819,0.0897 -0.360272,0.0812 -0.39379,0.0918 -0.389632,0.12394 0.0036,0.0276 -0.01127,0.0389 -0.06898,0.0525 -0.09939,0.0235 -0.122805,0.022 -0.122805,-0.008 0,-0.0138 -0.0142,-0.0252 -0.03155,-0.0252 -0.01735,0 -0.226346,0.0427 -0.464423,0.095 -0.417916,0.0917 -0.43248,0.0963 -0.421622,0.13303 0.0096,0.0326 7.99e-4,0.0405 -0.0628,0.0555 -0.09925,0.0234 -0.1233159,0.0221 -0.1233159,-0.007 0,-0.0423 -0.02977,-0.0425 -0.199047,-0.002 l -0.16557,0.0398 0.428672,0.002 c 0.3686659,9.8e-4 0.4286729,-0.002 0.4286729,-0.0237 0,-0.0355 0.173919,-0.0355 0.189963,0 0.0096,0.0213 0.08185,0.0252 0.482256,0.0252 0.3008,0 0.470908,-0.006 0.470908,-0.0168 0,-0.009 0.04435,-0.0168 0.09855,-0.0168 0.0542,0 0.09855,0.008 0.09855,0.0168 0,0.01 0.06242,0.0168 0.147819,0.0168 h 0.147819 z"
       id="path45-2-2"
       inkscape:connector-curvature="0" />
    <text
       xml:space="preserve"
       style="font-style:normal;font-weight:normal;font-size:10.58333302px;line-height:1.25;font-family:sans-serif;letter-spacing:0px;word-spacing:0px;fill:#000000;fill-opacity:1;stroke:none;stroke-width:0.26458332"
       x="12.88879"
       y="273.53946"
       id="text127"><tspan
         sodipodi:role="line"
         id="tspan125"
         x="12.88879"
         y="273.53946"
         style="font-size:4.23333311px;line-height:1;stroke-width:0.26458332">Lo</tspan></text>
    <text
       xml:space="preserve"
       style="font-style:normal;font-weight:normal;font-size:4.23333311px;line-height:1.25;font-family:sans-serif;letter-spacing:0px;word-spacing:0px;fill:#000000;fill-opacity:1;stroke:none;stroke-width:0.26458332"
       x="66.19873"
       y="259.39145"
       id="text155"><tspan
         sodipodi:role="line"
         id="tspan153"
         x="66.19873"
         y="259.39145"
         style="stroke-width:0.26458332">V<tspan
   style="font-size:2.11666667px"
   id="tspan157">2</tspan></tspan></text>
    <text
       xml:space="preserve"
       style="font-style:normal;font-weight:normal;font-size:4.23333311px;line-height:1.25;font-family:sans-serif;letter-spacing:0px;word-spacing:0px;fill:#000000;fill-opacity:1;stroke:none;stroke-width:0.26458332"
       x="16.501713"
       y="259.39145"
       id="text167"><tspan
         sodipodi:role="line"
         id="tspan165"
         x="16.501713"
         y="259.39145"
         style="stroke-width:0.26458332">V<tspan
   style="font-size:2.11666667px"
   id="tspan169">1</tspan></tspan></text>
    <text
       xml:space="preserve"
       style="font-style:normal;font-weight:normal;font-size:4.23333333px;line-height:1.25;font-family:sans-serif;letter-spacing:0px;word-spacing:0px;fill:#000000;fill-opacity:1;stroke:none;stroke-width:0.26458332;-inkscape-font-specification:'sans-serif, Normal';font-stretch:normal;font-variant:normal;text-anchor:start;text-align:start;writing-mode:lr;font-variant-ligatures:normal;font-variant-caps:normal;font-variant-numeric:normal;font-feature-settings:normal;"
       x="61.144234"
       y="272.2193"
       id="text127-1"><tspan
         sodipodi:role="line"
         id="tspan189">L1</tspan></text>
  </g>
</svg>
