<?xml version="1.0" encoding="UTF-8" standalone="no"?>
<!-- Created with Inkscape (http://www.inkscape.org/) -->

<svg
   xmlns:dc="http://purl.org/dc/elements/1.1/"
   xmlns:cc="http://creativecommons.org/ns#"
   xmlns:rdf="http://www.w3.org/1999/02/22-rdf-syntax-ns#"
   xmlns:svg="http://www.w3.org/2000/svg"
   xmlns="http://www.w3.org/2000/svg"
   xmlns:sodipodi="http://sodipodi.sourceforge.net/DTD/sodipodi-0.dtd"
   xmlns:inkscape="http://www.inkscape.org/namespaces/inkscape"
   width="91.344109mm"
   height="38.786156mm"
   viewBox="0 0 91.344109 38.786157"
   version="1.1"
   id="svg8"
   inkscape:version="0.92.1 r15371"
   sodipodi:docname="concentrador_simple.svg">
  <defs
     id="defs2" />
  <sodipodi:namedview
     id="base"
     pagecolor="#ffffff"
     bordercolor="#666666"
     borderopacity="1.0"
     inkscape:pageopacity="0.0"
     inkscape:pageshadow="2"
     inkscape:zoom="1.3788973"
     inkscape:cx="263.05783"
     inkscape:cy="52.927926"
     inkscape:document-units="mm"
     inkscape:current-layer="layer1"
     showgrid="false"
     units="mm"
     inkscape:window-width="1366"
     inkscape:window-height="705"
     inkscape:window-x="-8"
     inkscape:window-y="-8"
     inkscape:window-maximized="1"
     width="50mm" />
  <metadata
     id="metadata5">
    <rdf:RDF>
      <cc:Work
         rdf:about="">
        <dc:format>image/svg+xml</dc:format>
        <dc:type
           rdf:resource="http://purl.org/dc/dcmitype/StillImage" />
        <dc:title />
      </cc:Work>
    </rdf:RDF>
  </metadata>
  <g
     inkscape:label="Layer 1"
     inkscape:groupmode="layer"
     id="layer1"
     transform="translate(-11.804242,-204.7741)">
    <path
       style="fill:none;stroke:#000000;stroke-width:0.3896229px;stroke-linecap:butt;stroke-linejoin:miter;stroke-opacity:1"
       d="m 38.653548,210.22926 h 38.040957 v 33.13618 H 38.653548 Z"
       id="path16"
       inkscape:connector-curvature="0" />
    <path
       style="fill:none;stroke:#000000;stroke-width:0.3896229px;stroke-linecap:butt;stroke-linejoin:miter;stroke-opacity:1"
       d="m 15.338123,236.42262 h 22.579145 v 0.31559"
       id="path18"
       inkscape:connector-curvature="0" />
    <path
       style="fill:none;stroke:#000000;stroke-width:0.3896229px;stroke-linecap:butt;stroke-linejoin:miter;stroke-opacity:1"
       d="m 33.480805,234.93478 v 3.41156 h -0.09827 l 4.53473,-1.92372 z"
       id="path35"
       inkscape:connector-curvature="0" />
    <path
       style="fill:none;stroke:#000000;stroke-width:0.11160293;stroke-linecap:square;stroke-linejoin:round;stroke-miterlimit:4;stroke-dasharray:0.11160294, 1.33923524;stroke-dashoffset:0;stroke-opacity:1;paint-order:markers fill stroke"
       d="m 33.682976,237.2733 v -0.56859 l 1.400265,0.01 1.400267,0.01 -1.274555,0.55892 c -0.701005,0.3074 -1.331125,0.55891 -1.400266,0.55891 -0.08348,0 -0.125711,-0.19101 -0.125711,-0.56859 z"
       id="path37"
       inkscape:connector-curvature="0" />
    <path
       style="fill:none;stroke:#000000;stroke-width:0.11160293;stroke-linecap:square;stroke-linejoin:round;stroke-miterlimit:4;stroke-dasharray:0.11160294, 1.33923524;stroke-dashoffset:0;stroke-opacity:1;paint-order:markers fill stroke"
       d="m 33.682976,235.75705 c 0,-0.24323 0.03316,-0.43885 0.0737,-0.43471 0.04053,0.004 0.626434,0.19868 1.302001,0.43231 l 1.228303,0.42478 -1.302001,0.01 -1.302001,0.01 z"
       id="path39"
       inkscape:connector-curvature="0" />
    <path
       style="fill:#000000;stroke:#000000;stroke-width:0.02501445;stroke-linecap:square;stroke-linejoin:round;stroke-miterlimit:4;stroke-dasharray:0.02501445, 0.30017342;stroke-dashoffset:0;stroke-opacity:1;paint-order:markers fill stroke"
       d="m 33.65192,237.75313 c 0,-0.19352 0.0039,-0.2124 0.04405,-0.2124 0.04059,0 0.04405,-0.0189 0.04405,-0.24073 0,-0.22185 -0.0035,-0.24072 -0.04405,-0.24072 -0.03985,0 -0.04405,-0.0189 -0.04405,-0.19825 v -0.19824 h 0.407458 c 0.392775,0 0.407458,0.002 0.407458,0.0566 0,0.0491 0.01468,0.0566 0.110124,0.0566 0.09544,0 0.110123,-0.008 0.110123,-0.0566 0,-0.0551 0.01468,-0.0566 0.528594,-0.0566 h 0.528594 v 0.0708 c 0,0.0661 0.0073,0.0708 0.110124,0.0708 0.102782,0 0.110124,-0.005 0.110124,-0.0708 v -0.0708 l 0.390938,0.002 0.390939,0.002 -0.374419,0.16355 c -0.329437,0.1439 -0.376796,0.15809 -0.394188,0.11813 -0.01087,-0.025 -0.0223,-0.0495 -0.02539,-0.0544 -0.0031,-0.005 -0.04704,0.007 -0.09766,0.0264 -0.07895,0.0304 -0.09065,0.0448 -0.08228,0.1011 0.0091,0.0614 -0.0079,0.0728 -0.268005,0.17815 -0.152769,0.0619 -0.380363,0.15704 -0.505762,0.21148 -0.220374,0.0957 -0.228383,0.0971 -0.239496,0.0425 -0.01172,-0.0576 -0.02568,-0.0573 -0.153017,0.004 -0.02633,0.0126 -0.0511,0.0513 -0.05506,0.086 -0.0063,0.0548 -0.06142,0.0862 -0.425224,0.24225 -0.229916,0.0986 -0.430617,0.17932 -0.446001,0.17932 -0.02012,0 -0.02797,-0.0596 -0.02797,-0.21241 z"
       id="path43"
       inkscape:connector-curvature="0" />
    <path
       style="fill:#000000;stroke:none;stroke-width:0.02497512"
       d="m 33.65192,236.01141 c 0,-0.15105 0.0049,-0.16992 0.04405,-0.16992 0.03818,0 0.04405,-0.0189 0.04405,-0.14161 0,-0.12272 -0.0059,-0.1416 -0.04405,-0.1416 -0.03871,0 -0.04405,-0.0189 -0.04405,-0.15577 0,-0.10649 0.0087,-0.15531 0.02753,-0.15433 0.01514,8.8e-4 0.225753,0.0691 0.468025,0.15178 0.402601,0.13742 0.440058,0.15546 0.435412,0.20979 -0.004,0.0467 0.01256,0.0658 0.07709,0.0888 0.111072,0.0397 0.137232,0.0372 0.137232,-0.0128 0,-0.0234 0.01587,-0.0425 0.03526,-0.0425 0.01939,0 0.252939,0.0724 0.518988,0.1608 0.467017,0.15523 0.483293,0.16301 0.471158,0.22518 -0.0108,0.0553 -8.93e-4,0.0686 0.07017,0.0939 0.11092,0.0396 0.137804,0.0375 0.137804,-0.011 0,-0.0716 0.03327,-0.072 0.222433,-0.003 l 0.185023,0.0674 -0.479036,0.003 c -0.411981,0.002 -0.479039,-0.004 -0.479039,-0.04 0,-0.0601 -0.194353,-0.0601 -0.212282,0 -0.01078,0.0361 -0.09147,0.0425 -0.538915,0.0425 -0.336142,0 -0.526238,-0.0102 -0.526238,-0.0283 0,-0.0156 -0.04956,-0.0283 -0.110123,-0.0283 -0.06057,0 -0.110124,0.0127 -0.110124,0.0283 0,0.0163 -0.06975,0.0283 -0.165186,0.0283 h -0.165185 z"
       id="path45"
       inkscape:connector-curvature="0" />
    <path
       style="fill:none;stroke:#000000;stroke-width:0.3896229px;stroke-linecap:butt;stroke-linejoin:miter;stroke-opacity:1"
       d="m 76.961921,236.32258 h 22.579145 v 0.31559"
       id="path18-6"
       inkscape:connector-curvature="0" />
    <path
       style="fill:none;stroke:#000000;stroke-width:0.3896229px;stroke-linecap:butt;stroke-linejoin:miter;stroke-opacity:1"
       d="m 95.104603,234.83474 v 3.41156 h -0.09827 l 4.53473,-1.92372 z"
       id="path35-4"
       inkscape:connector-curvature="0" />
    <path
       style="fill:none;stroke:#000000;stroke-width:0.11160294;stroke-linecap:square;stroke-linejoin:round;stroke-miterlimit:4;stroke-dasharray:0.11160294, 1.33923526;stroke-dashoffset:0;stroke-opacity:1;paint-order:markers fill stroke"
       d="m 95.306774,237.17325 v -0.56858 l 1.400265,0.01 1.400267,0.01 -1.274556,0.55891 c -0.701004,0.30739 -1.331123,0.5589 -1.400265,0.5589 -0.08348,0 -0.125707,-0.19099 -0.125707,-0.56858 z"
       id="path37-9"
       inkscape:connector-curvature="0" />
    <path
       style="fill:none;stroke:#000000;stroke-width:0.11160294;stroke-linecap:square;stroke-linejoin:round;stroke-miterlimit:4;stroke-dasharray:0.11160294, 1.33923526;stroke-dashoffset:0;stroke-opacity:1;paint-order:markers fill stroke"
       d="m 95.306774,235.65701 c 0,-0.24323 0.03317,-0.43885 0.0737,-0.43471 0.04053,0.003 0.626434,0.19868 1.302001,0.43231 l 1.228303,0.42479 -1.302002,0.01 -1.302001,0.01 z"
       id="path39-0"
       inkscape:connector-curvature="0" />
    <path
       style="fill:#000000;stroke:#000000;stroke-width:0.02501445;stroke-linecap:square;stroke-linejoin:round;stroke-miterlimit:4;stroke-dasharray:0.02501445, 0.30017341;stroke-dashoffset:0;stroke-opacity:1;paint-order:markers fill stroke"
       d="m 95.275718,237.65309 c 0,-0.19352 0.0039,-0.21241 0.04405,-0.21241 0.04059,0 0.04405,-0.0189 0.04405,-0.24072 0,-0.22184 -0.0035,-0.24073 -0.04405,-0.24073 -0.03986,0 -0.04405,-0.0189 -0.04405,-0.19825 v -0.19824 h 0.407458 c 0.392775,0 0.407458,0.002 0.407458,0.0566 0,0.0491 0.01469,0.0566 0.110124,0.0566 0.09544,0 0.110124,-0.008 0.110124,-0.0566 0,-0.0551 0.01469,-0.0566 0.528594,-0.0566 h 0.528593 v 0.0708 c 0,0.0661 0.0074,0.0708 0.110124,0.0708 0.102786,0 0.110124,-0.005 0.110124,-0.0708 v -0.0708 l 0.390938,0.002 0.39094,0.002 -0.37442,0.16348 c -0.329437,0.14394 -0.376795,0.15813 -0.394188,0.11806 -0.01091,-0.0249 -0.0223,-0.0494 -0.02539,-0.0544 -0.0031,-0.005 -0.04704,0.007 -0.09766,0.0264 -0.07894,0.0304 -0.09066,0.0448 -0.08228,0.10103 0.0091,0.0614 -0.0079,0.0728 -0.268005,0.17814 -0.152769,0.062 -0.380363,0.15713 -0.505763,0.21149 -0.220373,0.0957 -0.228382,0.097 -0.239496,0.0424 -0.01169,-0.0576 -0.02567,-0.0573 -0.153016,0.003 -0.02632,0.0134 -0.0511,0.0514 -0.05506,0.086 -0.0062,0.0548 -0.06142,0.0862 -0.425224,0.24226 -0.229916,0.0987 -0.430617,0.17931 -0.446,0.17931 -0.02013,0 -0.02797,-0.0596 -0.02797,-0.21241 z"
       id="path43-1"
       inkscape:connector-curvature="0" />
    <path
       style="fill:#000000;stroke:none;stroke-width:0.02497512"
       d="m 95.275718,235.91136 c 0,-0.15112 0.0049,-0.16992 0.04405,-0.16992 0.03818,0 0.04405,-0.0189 0.04405,-0.14161 0,-0.12273 -0.0058,-0.1416 -0.04405,-0.1416 -0.03871,0 -0.04405,-0.0189 -0.04405,-0.1558 0,-0.10653 0.0087,-0.15529 0.02753,-0.15429 0.01514,8.8e-4 0.225754,0.0691 0.468026,0.15179 0.402602,0.13743 0.440058,0.15546 0.435411,0.2098 -0.004,0.0467 0.0126,0.0658 0.07709,0.0888 0.111072,0.0398 0.137233,0.0372 0.137233,-0.0134 0,-0.0234 0.01587,-0.0426 0.03526,-0.0426 0.01939,0 0.252939,0.0723 0.518988,0.16081 0.467017,0.1553 0.483292,0.16298 0.471158,0.22518 -0.01078,0.0553 -8.93e-4,0.0686 0.07018,0.094 0.110916,0.0396 0.137804,0.0374 0.137804,-0.0117 0,-0.0716 0.03327,-0.072 0.222433,-0.003 l 0.185024,0.0673 -0.479037,0.003 c -0.411981,0.002 -0.479039,-0.003 -0.479039,-0.0401 0,-0.0601 -0.194353,-0.0601 -0.212282,0 -0.01078,0.0361 -0.09146,0.0426 -0.538915,0.0426 -0.336141,0 -0.526237,-0.01 -0.526237,-0.0284 0,-0.015 -0.04956,-0.0284 -0.110124,-0.0284 -0.06057,0 -0.110124,0.0134 -0.110124,0.0284 0,0.0167 -0.06975,0.0284 -0.165186,0.0284 h -0.165185 z"
       id="path45-3"
       inkscape:connector-curvature="0" />
    <path
       style="fill:none;stroke:#000000;stroke-width:0.41716743px;stroke-linecap:butt;stroke-linejoin:miter;stroke-opacity:1"
       d="M 103.14835,218.06158 H 76.909247 v 0.31133"
       id="path18-62"
       inkscape:connector-curvature="0" />
    <path
       style="fill:none;stroke:#000000;stroke-width:0.41716743px;stroke-linecap:butt;stroke-linejoin:miter;stroke-opacity:1"
       d="m 82.064834,216.59384 v 3.36546 h 0.114201 l -5.269781,-1.89772 z"
       id="path35-2"
       inkscape:connector-curvature="0" />
    <path
       style="fill:none;stroke:#000000;stroke-width:0.11949275;stroke-linecap:square;stroke-linejoin:round;stroke-miterlimit:4;stroke-dasharray:0.11949276, 1.43391297;stroke-dashoffset:0;stroke-opacity:1;paint-order:markers fill stroke"
       d="m 81.829892,218.90077 v -0.56091 l -1.62724,0.01 -1.627241,0.01 1.481153,0.55135 c 0.814632,0.30323 1.54689,0.55136 1.62724,0.55136 0.09701,0 0.146083,-0.18843 0.146083,-0.56091 z"
       id="path37-5"
       inkscape:connector-curvature="0" />
    <path
       style="fill:none;stroke:#000000;stroke-width:0.11949275;stroke-linecap:square;stroke-linejoin:round;stroke-miterlimit:4;stroke-dasharray:0.11949276, 1.43391297;stroke-dashoffset:0;stroke-opacity:1;paint-order:markers fill stroke"
       d="m 81.829892,217.40501 c 0,-0.23994 -0.03854,-0.43293 -0.08564,-0.42884 -0.0471,0.003 -0.727976,0.196 -1.513048,0.42647 l -1.427403,0.41905 1.513048,0.01 1.513047,0.01 z"
       id="path39-2"
       inkscape:connector-curvature="0" />
    <path
       style="fill:#000000;stroke:#000000;stroke-width:0.02678286;stroke-linecap:square;stroke-linejoin:round;stroke-miterlimit:4;stroke-dasharray:0.02678286, 0.32139428;stroke-dashoffset:0;stroke-opacity:1;paint-order:markers fill stroke"
       d="m 81.865981,219.3741 c 0,-0.19089 -0.0045,-0.20953 -0.05119,-0.20953 -0.04718,0 -0.05119,-0.0185 -0.05119,-0.23747 0,-0.21883 0.004,-0.23747 0.05119,-0.23747 0.04632,0 0.05119,-0.0185 0.05119,-0.19557 v -0.19556 h -0.473503 c -0.456442,0 -0.473506,0.002 -0.473506,0.0558 0,0.0484 -0.01706,0.0558 -0.127979,0.0558 -0.110903,0 -0.12798,-0.008 -0.12798,-0.0558 0,-0.0544 -0.01706,-0.0558 -0.614277,-0.0558 h -0.614274 v 0.0698 c 0,0.0653 -0.0086,0.0698 -0.12798,0.0698 -0.119448,0 -0.12798,-0.005 -0.12798,-0.0698 v -0.0698 l -0.454307,0.002 -0.45431,0.002 0.435112,0.16131 c 0.382836,0.14193 0.437871,0.15596 0.458083,0.11639 0.01273,-0.0246 0.02591,-0.0488 0.02951,-0.0538 0.0036,-0.005 0.05466,0.007 0.113487,0.026 0.09173,0.0301 0.105358,0.0441 0.09562,0.0997 -0.01052,0.0606 0.0092,0.0718 0.311447,0.17573 0.177533,0.0611 0.442018,0.15496 0.587744,0.20863 0.256095,0.0943 0.265401,0.0957 0.278317,0.0419 0.01358,-0.0568 0.02983,-0.0564 0.177819,0.003 0.0306,0.0134 0.05939,0.0508 0.06398,0.0848 0.0073,0.0541 0.07139,0.085 0.494151,0.23899 0.267184,0.0973 0.500416,0.17688 0.518293,0.17688 0.02339,0 0.03251,-0.0588 0.03251,-0.20953 z"
       id="path43-2"
       inkscape:connector-curvature="0" />
    <path
       style="fill:#000000;stroke:none;stroke-width:0.02674074"
       d="m 81.865981,217.65592 c 0,-0.14912 -0.0057,-0.16763 -0.05119,-0.16763 -0.04437,0 -0.05119,-0.0185 -0.05119,-0.1396 0,-0.12107 0.0068,-0.13977 0.05119,-0.13977 0.04498,0 0.05119,-0.0185 0.05119,-0.15363 0,-0.10503 -0.01013,-0.15312 -0.032,-0.15212 -0.0176,8.7e-4 -0.262348,0.0681 -0.543891,0.14978 -0.46786,0.1356 -0.511387,0.1533 -0.505987,0.20697 0.0047,0.0461 -0.01464,0.0649 -0.08958,0.0877 -0.129071,0.0392 -0.159478,0.0367 -0.159478,-0.0134 0,-0.023 -0.01844,-0.0421 -0.04097,-0.0421 -0.02253,0 -0.293939,0.0713 -0.603113,0.15864 -0.542718,0.15313 -0.561632,0.16081 -0.547531,0.22214 0.01247,0.0544 0.001,0.0676 -0.08155,0.0927 -0.128889,0.0391 -0.160142,0.0369 -0.160142,-0.0117 0,-0.0706 -0.03866,-0.071 -0.258488,-0.003 l -0.215014,0.0665 0.556686,0.003 c 0.478761,0.002 0.556687,-0.003 0.556687,-0.0396 0,-0.0593 0.225857,-0.0593 0.246692,0 0.01247,0.0356 0.106293,0.0421 0.626271,0.0421 0.390627,0 0.611536,-0.01 0.611536,-0.0281 0,-0.015 0.05759,-0.0281 0.12798,-0.0281 0.07039,0 0.12798,0.0134 0.12798,0.0281 0,0.0167 0.08106,0.0281 0.191962,0.0281 h 0.191961 z"
       id="path45-2"
       inkscape:connector-curvature="0" />
    <path
       style="fill:none;stroke:#000000;stroke-width:0.41716743px;stroke-linecap:butt;stroke-linejoin:miter;stroke-opacity:1"
       d="M 38.723479,217.73816 H 12.484394 v 0.31133"
       id="path18-62-6"
       inkscape:connector-curvature="0" />
    <path
       style="fill:none;stroke:#000000;stroke-width:0.41716743px;stroke-linecap:butt;stroke-linejoin:miter;stroke-opacity:1"
       d="m 17.639981,216.27043 v 3.36546 h 0.114202 L 12.4844,217.73816 Z"
       id="path35-2-6"
       inkscape:connector-curvature="0" />
    <path
       style="fill:none;stroke:#000000;stroke-width:0.11949277;stroke-linecap:square;stroke-linejoin:round;stroke-miterlimit:4;stroke-dasharray:0.11949276, 1.43391298;stroke-dashoffset:0;stroke-opacity:1;paint-order:markers fill stroke"
       d="m 17.40504,218.57735 v -0.56091 l -1.62724,0.01 -1.627242,0.01 1.481154,0.55136 c 0.814631,0.30322 1.54689,0.55135 1.62724,0.55135 0.09701,0 0.146083,-0.18843 0.146083,-0.56091 z"
       id="path37-5-9"
       inkscape:connector-curvature="0" />
    <path
       style="fill:none;stroke:#000000;stroke-width:0.11949277;stroke-linecap:square;stroke-linejoin:round;stroke-miterlimit:4;stroke-dasharray:0.11949276, 1.43391298;stroke-dashoffset:0;stroke-opacity:1;paint-order:markers fill stroke"
       d="m 17.40504,217.08159 c 0,-0.23994 -0.03854,-0.43292 -0.08564,-0.42883 -0.0471,0.003 -0.727975,0.19599 -1.513047,0.42646 l -1.427403,0.41905 1.513047,0.01 1.513048,0.01 z"
       id="path39-2-5"
       inkscape:connector-curvature="0" />
    <path
       style="fill:#000000;stroke:#000000;stroke-width:0.02678286;stroke-linecap:square;stroke-linejoin:round;stroke-miterlimit:4;stroke-dasharray:0.02678286, 0.32139428;stroke-dashoffset:0;stroke-opacity:1;paint-order:markers fill stroke"
       d="m 17.441129,219.05069 c 0,-0.1909 -0.0045,-0.20954 -0.05119,-0.20954 -0.04718,0 -0.05119,-0.0185 -0.05119,-0.23747 0,-0.21883 0.004,-0.23747 0.05119,-0.23747 0.04632,0 0.05119,-0.0185 0.05119,-0.19557 v -0.19556 h -0.473504 c -0.456441,0 -0.473505,0.002 -0.473505,0.0558 0,0.0484 -0.01706,0.0558 -0.12798,0.0558 -0.110903,0 -0.12798,-0.008 -0.12798,-0.0558 0,-0.0544 -0.01706,-0.0558 -0.614276,-0.0558 H 15.00961 v 0.0698 c 0,0.0653 -0.0086,0.0698 -0.12798,0.0698 -0.119448,0 -0.12798,-0.005 -0.12798,-0.0698 v -0.0698 l -0.454308,0.002 -0.45431,0.002 0.435113,0.16131 c 0.382836,0.14194 0.43787,0.15596 0.458082,0.11639 0.01273,-0.0246 0.02591,-0.0488 0.0295,-0.0538 0.0036,-0.005 0.05466,0.007 0.113487,0.026 0.09174,0.0301 0.105358,0.0441 0.09562,0.0997 -0.01052,0.0606 0.0092,0.0718 0.311447,0.17573 0.177533,0.0611 0.442018,0.15497 0.587744,0.20864 0.256095,0.0943 0.265401,0.0957 0.278317,0.0419 0.01358,-0.0568 0.02983,-0.0564 0.177819,0.003 0.0306,0.0134 0.05939,0.0508 0.06398,0.0848 0.0073,0.0541 0.07139,0.085 0.494151,0.23899 0.267184,0.0973 0.500417,0.17689 0.518293,0.17689 0.02339,0 0.03251,-0.0588 0.03251,-0.20954 z"
       id="path43-2-4"
       inkscape:connector-curvature="0" />
    <path
       style="fill:#000000;stroke:none;stroke-width:0.02674074"
       d="m 17.441129,217.3325 c 0,-0.14911 -0.0057,-0.16763 -0.05119,-0.16763 -0.04438,0 -0.05119,-0.0185 -0.05119,-0.1396 0,-0.12107 0.0068,-0.13977 0.05119,-0.13977 0.04498,0 0.05119,-0.0185 0.05119,-0.15363 0,-0.10503 -0.01013,-0.15312 -0.032,-0.15212 -0.0176,8.9e-4 -0.262347,0.0681 -0.54389,0.14979 -0.46786,0.13559 -0.511388,0.15329 -0.505988,0.20696 0.0047,0.0461 -0.01464,0.065 -0.08958,0.0877 -0.129071,0.0392 -0.159479,0.0367 -0.159479,-0.0134 0,-0.0231 -0.01844,-0.0421 -0.04097,-0.0421 -0.02253,0 -0.29394,0.0713 -0.603114,0.15863 -0.542718,0.15313 -0.561631,0.16081 -0.547531,0.22214 0.01247,0.0544 10e-4,0.0676 -0.08155,0.0927 -0.128889,0.0391 -0.160141,0.0369 -0.160141,-0.0117 0,-0.0706 -0.03866,-0.071 -0.258489,-0.003 l -0.215014,0.0665 0.556686,0.003 c 0.478761,0.002 0.556688,-0.003 0.556688,-0.0396 0,-0.0593 0.225856,-0.0593 0.246691,0 0.01247,0.0356 0.106293,0.0421 0.626272,0.0421 0.390628,0 0.611535,-0.01 0.611535,-0.0281 0,-0.015 0.05759,-0.0281 0.12798,-0.0281 0.07039,0 0.12798,0.0134 0.12798,0.0281 0,0.0167 0.08106,0.0281 0.191962,0.0281 h 0.191959 z"
       id="path45-2-2"
       inkscape:connector-curvature="0" />
    <text
       xml:space="preserve"
       style="font-style:normal;font-weight:normal;font-size:15.58491707px;line-height:1.25;font-family:sans-serif;letter-spacing:0px;word-spacing:0px;fill:#000000;fill-opacity:1;stroke:none;stroke-width:0.3896229"
       x="21.066067"
       y="205.95021"
       id="text127"
       transform="scale(0.88186734,1.1339574)"><tspan
         sodipodi:role="line"
         id="tspan125"
         x="21.066067"
         y="205.95021"
         style="font-size:6.23396635px;line-height:1;stroke-width:0.3896229">Lo</tspan></text>
    <text
       xml:space="preserve"
       style="font-style:normal;font-weight:normal;font-size:6.23396635px;line-height:1.25;font-family:sans-serif;letter-spacing:0px;word-spacing:0px;fill:#000000;fill-opacity:1;stroke:none;stroke-width:0.3896229"
       x="99.569786"
       y="185.116"
       id="text155"
       transform="scale(0.88186734,1.1339574)"><tspan
         sodipodi:role="line"
         id="tspan153"
         x="99.569786"
         y="185.116"
         style="stroke-width:0.3896229">V<tspan
   style="font-size:3.11698318px;stroke-width:0.3896229"
   id="tspan157">2</tspan></tspan></text>
    <text
       xml:space="preserve"
       style="font-style:normal;font-weight:normal;font-size:6.23396635px;line-height:1.25;font-family:sans-serif;letter-spacing:0px;word-spacing:0px;fill:#000000;fill-opacity:1;stroke:none;stroke-width:0.3896229"
       x="26.386423"
       y="185.116"
       id="text167"
       transform="scale(0.88186734,1.1339574)"><tspan
         sodipodi:role="line"
         id="tspan165"
         x="26.386423"
         y="185.116"
         style="stroke-width:0.3896229">V<tspan
   style="font-size:3.11698318px;stroke-width:0.3896229"
   id="tspan169">1</tspan></tspan></text>
    <text
       xml:space="preserve"
       style="font-style:normal;font-variant:normal;font-weight:normal;font-stretch:normal;font-size:6.23396635px;line-height:1.25;font-family:sans-serif;-inkscape-font-specification:'sans-serif, Normal';font-variant-ligatures:normal;font-variant-caps:normal;font-variant-numeric:normal;font-feature-settings:normal;text-align:start;letter-spacing:0px;word-spacing:0px;writing-mode:lr-tb;text-anchor:start;fill:#000000;fill-opacity:1;stroke:none;stroke-width:0.3896229"
       x="92.126579"
       y="204.00616"
       id="text127-1"
       transform="scale(0.88186734,1.1339574)"><tspan
         sodipodi:role="line"
         id="tspan189"
         x="92.126579"
         y="204.00616"
         style="stroke-width:0.3896229">L1</tspan></text>
  </g>
</svg>
